PathFileType	4	(X / Y / Z)	Demo_140333_11_September_2019	Demo_140333_11_September_2019.trc
DataRate	CameraRate	NumFrames	NumMarkers	Units	OrigDataRate	OrigDataStartFrame	OrigNumFrames
50	50	19	25	m	50	890	960
Frame#	Time		SpineBase		SpineMid		Neck		Head		ShoulderLeft		ElbowLeft		WristLeft		HandLeft		ShoulderRight		ElbowRight		WristRight		HandRight		HipLeft		KneeLeft		AnkleLeft		FootLeft		HipRight		KneeRight		AnkleRight		FootRight		SpineShoulder		HandTipLeft		LeftThumb		HandTipRight		ThumbRight		
X1	Y1	Z1	X2	Y2	Z2	X3	Y3	Z3	X4	Y4	Z4	X5	Y5	Z5	X6	Y6	Z6	X7	Y7	Z7	X8	Y8	Z8	X9	Y9	Z9	X10	Y10	Z10	X11	Y11	Z11	X12	Y12	Z12	X13	Y13	Z13	X14	Y14	Z14	X15	Y15	Z15	X16	Y16	Z16	X17	Y17	Z17	X18	Y18	Z18	X19	Y19	Z19	X20	Y20	Z20	X21	Y21	Z21	X22	Y22	Z22	X23	Y23	Z23	X24	Y24	Z24	X25	Y25	Z25	
841	63.994	0.023	0.660	1.275	0.036	0.948	1.203	0.050	1.226	1.112	0.064	1.379	1.096	-0.087	1.119	1.079	-0.187	0.892	1.028	-0.246	0.699	0.897	-0.253	0.653	0.866	0.193	1.104	1.151	0.180	0.829	1.193	0.188	0.632	1.188	0.177	0.605	1.203	-0.052	0.668	1.234	-0.138	0.383	1.300	-0.097	0.294	1.387	-0.069	0.299	1.379	0.097	0.669	1.252	0.141	0.357	1.232	0.096	0.239	1.219	0.057	0.260	1.169	0.046	1.158	1.137	-0.248	0.597	0.852	-0.309	0.647	0.925	0.172	0.537	1.215	0.189	0.610	1.223
842	64.011	0.028	0.653	1.264	0.046	0.939	1.184	0.063	1.214	1.086	0.080	1.368	1.070	-0.077	1.112	1.058	-0.181	0.888	1.000	-0.243	0.692	0.857	-0.247	0.653	0.821	0.205	1.092	1.122	0.186	0.825	1.174	0.250	0.645	1.207	0.265	0.602	1.243	-0.048	0.662	1.223	-0.088	0.389	1.326	-0.070	0.303	1.395	-0.067	0.289	1.376	0.104	0.661	1.239	0.134	0.320	1.228	0.015	0.037	1.248	0.029	0.026	1.174	0.059	1.147	1.113	-0.243	0.600	0.799	-0.308	0.646	0.890	0.229	0.554	1.230	0.266	0.612	1.217
843	64.028	0.028	0.653	1.264	0.046	0.939	1.184	0.063	1.214	1.086	0.080	1.368	1.070	-0.077	1.112	1.058	-0.181	0.888	1.000	-0.243	0.692	0.857	-0.247	0.653	0.821	0.205	1.092	1.122	0.186	0.825	1.174	0.250	0.645	1.207	0.265	0.602	1.243	-0.048	0.662	1.223	-0.088	0.389	1.326	-0.070	0.303	1.395	-0.067	0.289	1.376	0.104	0.661	1.239	0.134	0.320	1.228	0.015	0.037	1.248	0.029	0.026	1.174	0.059	1.147	1.113	-0.243	0.600	0.799	-0.308	0.646	0.890	0.229	0.554	1.230	0.266	0.612	1.217
844	64.044	0.028	0.653	1.264	0.046	0.939	1.184	0.063	1.214	1.086	0.080	1.368	1.070	-0.077	1.112	1.058	-0.181	0.888	1.000	-0.243	0.692	0.857	-0.247	0.653	0.821	0.205	1.092	1.122	0.186	0.825	1.174	0.250	0.645	1.207	0.265	0.602	1.243	-0.048	0.662	1.223	-0.088	0.389	1.326	-0.070	0.303	1.395	-0.067	0.289	1.376	0.104	0.661	1.239	0.134	0.320	1.228	0.015	0.037	1.248	0.029	0.026	1.174	0.059	1.147	1.113	-0.243	0.600	0.799	-0.308	0.646	0.890	0.229	0.554	1.230	0.266	0.612	1.217
845	64.061	0.028	0.653	1.264	0.046	0.939	1.184	0.063	1.214	1.086	0.080	1.368	1.070	-0.077	1.112	1.058	-0.181	0.888	1.000	-0.243	0.692	0.857	-0.247	0.653	0.821	0.205	1.092	1.122	0.186	0.825	1.174	0.250	0.645	1.207	0.265	0.602	1.243	-0.048	0.662	1.223	-0.088	0.389	1.326	-0.070	0.303	1.395	-0.067	0.289	1.376	0.104	0.661	1.239	0.134	0.320	1.228	0.015	0.037	1.248	0.029	0.026	1.174	0.059	1.147	1.113	-0.243	0.600	0.799	-0.308	0.646	0.890	0.229	0.554	1.230	0.266	0.612	1.217
846	64.078	0.038	0.637	1.234	0.060	0.919	1.145	0.081	1.191	1.039	0.107	1.343	1.018	-0.062	1.096	1.024	-0.171	0.881	0.938	-0.227	0.691	0.796	-0.230	0.653	0.753	0.220	1.070	1.083	0.236	0.818	1.140	0.321	0.631	1.116	0.327	0.604	1.113	-0.041	0.650	1.197	-0.061	0.395	1.336	0.022	0.119	1.443	0.057	0.081	1.318	0.115	0.644	1.207	0.133	0.292	1.220	0.026	0.068	1.255	0.041	0.048	1.170	0.076	1.125	1.068	-0.233	0.599	0.723	-0.238	0.640	0.797	0.306	0.536	1.122	0.314	0.633	1.130
847	64.095	0.038	0.637	1.234	0.060	0.919	1.145	0.081	1.191	1.039	0.107	1.343	1.018	-0.062	1.096	1.024	-0.171	0.881	0.938	-0.227	0.691	0.796	-0.230	0.653	0.753	0.220	1.070	1.083	0.236	0.818	1.140	0.321	0.631	1.116	0.327	0.604	1.113	-0.041	0.650	1.197	-0.061	0.395	1.336	0.022	0.119	1.443	0.057	0.081	1.318	0.115	0.644	1.207	0.133	0.292	1.220	0.026	0.068	1.255	0.041	0.048	1.170	0.076	1.125	1.068	-0.233	0.599	0.723	-0.238	0.640	0.797	0.306	0.536	1.122	0.314	0.633	1.130
848	64.111	0.047	0.627	1.214	0.073	0.903	1.112	0.096	1.171	0.996	0.126	1.324	0.978	-0.045	1.074	0.977	-0.162	0.875	0.900	-0.209	0.697	0.751	-0.212	0.653	0.699	0.240	1.042	1.031	0.280	0.810	1.105	0.369	0.630	1.040	0.386	0.598	1.020	-0.034	0.642	1.179	-0.049	0.397	1.338	0.067	0.048	1.469	0.096	0.010	1.343	0.125	0.633	1.185	0.135	0.274	1.214	0.030	0.073	1.255	0.050	0.044	1.163	0.091	1.106	1.027	-0.225	0.604	0.675	-0.182	0.629	0.715	0.406	0.526	1.031	0.380	0.627	1.053
849	64.128	0.047	0.627	1.214	0.073	0.903	1.112	0.096	1.171	0.996	0.126	1.324	0.978	-0.045	1.074	0.977	-0.162	0.875	0.900	-0.209	0.697	0.751	-0.212	0.653	0.699	0.240	1.042	1.031	0.280	0.810	1.105	0.369	0.630	1.040	0.386	0.598	1.020	-0.034	0.642	1.179	-0.049	0.397	1.338	0.067	0.048	1.469	0.096	0.010	1.343	0.125	0.633	1.185	0.135	0.274	1.214	0.030	0.073	1.255	0.050	0.044	1.163	0.091	1.106	1.027	-0.225	0.604	0.675	-0.182	0.629	0.715	0.406	0.526	1.031	0.380	0.627	1.053
850	64.145	0.056	0.620	1.196	0.083	0.892	1.087	0.107	1.155	0.960	0.139	1.309	0.946	-0.035	1.059	0.945	-0.153	0.866	0.854	-0.199	0.699	0.725	-0.200	0.655	0.670	0.252	1.025	0.997	0.315	0.800	1.065	0.428	0.639	0.975	0.448	0.608	0.929	-0.024	0.634	1.160	-0.042	0.397	1.335	-0.015	0.238	1.413	-0.010	0.216	1.367	0.133	0.626	1.169	0.139	0.262	1.208	0.042	0.091	1.248	0.065	0.055	1.152	0.101	1.091	0.995	-0.217	0.612	0.641	-0.163	0.627	0.689	0.472	0.533	0.922	0.430	0.611	0.996
851	64.161	0.056	0.620	1.196	0.083	0.892	1.087	0.107	1.155	0.960	0.139	1.309	0.946	-0.035	1.059	0.945	-0.153	0.866	0.854	-0.199	0.699	0.725	-0.200	0.655	0.670	0.252	1.025	0.997	0.315	0.800	1.065	0.428	0.639	0.975	0.448	0.608	0.929	-0.024	0.634	1.160	-0.042	0.397	1.335	-0.015	0.238	1.413	-0.010	0.216	1.367	0.133	0.626	1.169	0.139	0.262	1.208	0.042	0.091	1.248	0.065	0.055	1.152	0.101	1.091	0.995	-0.217	0.612	0.641	-0.163	0.627	0.689	0.472	0.533	0.922	0.430	0.611	0.996
852	64.178	0.065	0.615	1.182	0.092	0.884	1.067	0.114	1.142	0.933	0.150	1.294	0.915	-0.026	1.047	0.916	-0.148	0.860	0.831	-0.190	0.700	0.706	-0.189	0.661	0.654	0.261	1.013	0.964	0.339	0.795	1.020	0.461	0.659	0.902	0.472	0.630	0.853	-0.016	0.630	1.145	-0.032	0.396	1.325	0.006	0.102	1.480	0.029	0.053	1.382	0.142	0.621	1.154	0.145	0.255	1.203	0.057	0.110	1.230	0.081	0.078	1.135	0.109	1.080	0.969	-0.207	0.620	0.619	-0.150	0.626	0.668	0.517	0.556	0.820	0.464	0.622	0.912
853	64.195	0.065	0.615	1.182	0.092	0.884	1.067	0.114	1.142	0.933	0.150	1.294	0.915	-0.026	1.047	0.916	-0.148	0.860	0.831	-0.190	0.700	0.706	-0.189	0.661	0.654	0.261	1.013	0.964	0.339	0.795	1.020	0.461	0.659	0.902	0.472	0.630	0.853	-0.016	0.630	1.145	-0.032	0.396	1.325	0.006	0.102	1.480	0.029	0.053	1.382	0.142	0.621	1.154	0.145	0.255	1.203	0.057	0.110	1.230	0.081	0.078	1.135	0.109	1.080	0.969	-0.207	0.620	0.619	-0.150	0.626	0.668	0.517	0.556	0.820	0.464	0.622	0.912
854	64.212	0.065	0.615	1.182	0.092	0.884	1.067	0.114	1.142	0.933	0.150	1.294	0.915	-0.026	1.047	0.916	-0.148	0.860	0.831	-0.190	0.700	0.706	-0.189	0.661	0.654	0.261	1.013	0.964	0.339	0.795	1.020	0.461	0.659	0.902	0.472	0.630	0.853	-0.016	0.630	1.145	-0.032	0.396	1.325	0.006	0.102	1.480	0.029	0.053	1.382	0.142	0.621	1.154	0.145	0.255	1.203	0.057	0.110	1.230	0.081	0.078	1.135	0.109	1.080	0.969	-0.207	0.620	0.619	-0.150	0.626	0.668	0.517	0.556	0.820	0.464	0.622	0.912
855	64.228	0.065	0.615	1.182	0.092	0.884	1.067	0.114	1.142	0.933	0.150	1.294	0.915	-0.026	1.047	0.916	-0.148	0.860	0.831	-0.190	0.700	0.706	-0.189	0.661	0.654	0.261	1.013	0.964	0.339	0.795	1.020	0.461	0.659	0.902	0.472	0.630	0.853	-0.016	0.630	1.145	-0.032	0.396	1.325	0.006	0.102	1.480	0.029	0.053	1.382	0.142	0.621	1.154	0.145	0.255	1.203	0.057	0.110	1.230	0.081	0.078	1.135	0.109	1.080	0.969	-0.207	0.620	0.619	-0.150	0.626	0.668	0.517	0.556	0.820	0.464	0.622	0.912
856	64.245	0.081	0.610	1.161	0.105	0.870	1.034	0.122	1.121	0.888	0.160	1.272	0.865	-0.015	1.027	0.874	-0.130	0.847	0.792	-0.169	0.688	0.677	-0.170	0.665	0.635	0.270	0.997	0.915	0.358	0.793	0.942	0.480	0.685	0.791	0.500	0.662	0.726	-0.001	0.624	1.125	-0.029	0.395	1.309	-0.060	0.099	1.514	-0.043	0.029	1.416	0.158	0.618	1.134	0.160	0.250	1.191	0.073	0.122	1.204	0.096	0.097	1.114	0.119	1.060	0.927	-0.193	0.632	0.600	-0.140	0.625	0.652	0.541	0.609	0.672	0.495	0.633	0.785
857	64.262	0.081	0.610	1.161	0.105	0.870	1.034	0.122	1.121	0.888	0.160	1.272	0.865	-0.015	1.027	0.874	-0.130	0.847	0.792	-0.169	0.688	0.677	-0.170	0.665	0.635	0.270	0.997	0.915	0.358	0.793	0.942	0.480	0.685	0.791	0.500	0.662	0.726	-0.001	0.624	1.125	-0.029	0.395	1.309	-0.060	0.099	1.514	-0.043	0.029	1.416	0.158	0.618	1.134	0.160	0.250	1.191	0.073	0.122	1.204	0.096	0.097	1.114	0.119	1.060	0.927	-0.193	0.632	0.600	-0.140	0.625	0.652	0.541	0.609	0.672	0.495	0.633	0.785
858	64.278	0.092	0.607	1.147	0.113	0.862	1.014	0.127	1.106	0.861	0.166	1.256	0.830	-0.009	1.017	0.852	-0.120	0.841	0.769	-0.146	0.678	0.654	-0.156	0.667	0.623	0.275	0.987	0.880	0.365	0.793	0.878	0.467	0.696	0.728	0.484	0.681	0.681	0.009	0.621	1.113	-0.027	0.396	1.297	-0.088	0.101	1.528	-0.077	0.023	1.431	0.170	0.615	1.118	0.185	0.248	1.170	0.088	0.135	1.181	0.104	0.113	1.099	0.125	1.047	0.902	-0.179	0.643	0.586	-0.133	0.625	0.640	0.538	0.631	0.609	0.516	0.631	0.701
859	64.295	0.092	0.607	1.147	0.113	0.862	1.014	0.127	1.106	0.861	0.166	1.256	0.830	-0.009	1.017	0.852	-0.120	0.841	0.769	-0.146	0.678	0.654	-0.156	0.667	0.623	0.275	0.987	0.880	0.365	0.793	0.878	0.467	0.696	0.728	0.484	0.681	0.681	0.009	0.621	1.113	-0.027	0.396	1.297	-0.088	0.101	1.528	-0.077	0.023	1.431	0.170	0.615	1.118	0.185	0.248	1.170	0.088	0.135	1.181	0.104	0.113	1.099	0.125	1.047	0.902	-0.179	0.643	0.586	-0.133	0.625	0.640	0.538	0.631	0.609	0.516	0.631	0.701
